<?xml version="1.0" encoding="UTF-8" standalone="no"?>
<!DOCTYPE svg PUBLIC "-//W3C//DTD SVG 1.1//EN" "http://www.w3.org/Graphics/SVG/1.1/DTD/svg11.dtd">
<svg width="100%" height="100%" viewBox="0 0 512 477" version="1.1" xmlns="http://www.w3.org/2000/svg" xmlns:xlink="http://www.w3.org/1999/xlink" xml:space="preserve" xmlns:serif="http://www.serif.com/" style="fill-rule:evenodd;clip-rule:evenodd;strokeLinejoin:round;stroke-miterlimit:2;">
    <g transform="matrix(1,0,0,1,-0.00062699,-17.8659)">
        <path d="M356.824,41.913C333.966,26.182 307.179,17.866 279.355,17.866C227.729,17.866 181.04,46.453 157.505,92.47C153.707,99.9 146.879,98.966 140.218,98.966C99.072,98.966 62.473,125.113 49.145,164.03C47.967,167.471 45.084,170.22 41.238,171.572C15.55,180.601 -1.004,204.977 0.048,232.23C1.329,265.493 29.475,291.501 62.916,291.501L85.442,291.501L85.442,318.613L63.507,318.613C60.372,309.368 51.617,302.693 41.326,302.693C28.412,302.693 17.905,313.199 17.905,326.112C17.905,339.027 28.412,349.533 41.326,349.533C51.617,349.533 60.373,342.858 63.507,333.612L92.942,333.612C97.085,333.612 100.442,330.254 100.442,326.112L100.442,291.501L168.237,291.501L168.237,391.624L123.273,391.624C120.019,380.461 109.701,372.278 97.501,372.278C82.697,372.278 70.654,384.321 70.654,399.124C70.654,413.927 82.697,425.97 97.501,425.97C109.701,425.97 120.019,417.787 123.273,406.624L175.737,406.624C179.88,406.624 183.237,403.266 183.237,399.124L183.237,291.501L250.929,291.501L250.929,431.245C236.95,434.628 226.534,447.237 226.534,462.239C226.534,479.826 240.842,494.134 258.429,494.134C276.016,494.134 290.324,479.826 290.324,462.239C290.324,447.236 279.908,434.627 265.929,431.245L265.929,291.501L282.276,291.501C286.419,291.501 289.776,288.143 289.776,284.001C289.776,279.859 286.419,276.501 282.276,276.501L62.916,276.501C37.469,276.501 15.989,256.382 15.036,231.652C14.24,211.014 26.768,192.557 46.213,185.724C54.42,182.839 60.661,176.703 63.337,168.89C74.587,136.038 105.483,113.966 140.219,113.966C145.366,113.966 162.37,115.908 170.862,99.3C191.819,58.322 233.39,32.866 279.356,32.866C304.128,32.866 327.975,40.267 348.321,54.269C351.734,56.618 356.403,55.755 358.751,52.343C361.098,48.931 360.236,44.261 356.824,41.913ZM41.326,334.533C36.682,334.533 32.905,330.755 32.905,326.112C32.905,321.469 36.682,317.693 41.326,317.693C45.969,317.693 49.746,321.469 49.746,326.112C49.746,330.755 45.968,334.533 41.326,334.533ZM97.501,410.97C90.969,410.97 85.654,405.656 85.654,399.124C85.654,392.592 90.968,387.278 97.501,387.278C104.032,387.278 109.347,392.592 109.347,399.124C109.347,405.656 104.033,410.97 97.501,410.97ZM275.324,462.24C275.324,471.556 267.745,479.135 258.429,479.135C249.114,479.135 241.534,471.556 241.534,462.24C241.534,452.924 249.113,445.346 258.429,445.346C267.745,445.346 275.324,452.924 275.324,462.24Z" style="fill:rgb(234,39,46);fill-rule:nonzero;"/>
        <path d="M412.19,276.501L317.276,276.501C313.133,276.501 309.776,279.859 309.776,284.001C309.776,288.143 313.133,291.501 317.276,291.501L333.623,291.501L333.623,399.124C333.623,403.266 336.98,406.624 341.123,406.624L393.586,406.624C396.84,417.787 407.158,425.97 419.359,425.97C434.162,425.97 446.205,413.927 446.205,399.124C446.205,384.321 434.162,372.278 419.359,372.278C407.159,372.278 396.84,380.461 393.586,391.624L348.623,391.624L348.623,291.501L412.19,291.501C413.765,291.501 415.337,291.46 416.906,291.384L416.906,326.112C416.906,330.254 420.263,333.612 424.406,333.612L453.84,333.612C456.975,342.858 465.731,349.533 476.022,349.533C488.936,349.533 499.443,339.027 499.443,326.112C499.443,313.199 488.936,302.693 476.022,302.693C465.731,302.693 456.975,309.368 453.84,318.613L431.906,318.613L431.906,289.505C477.542,280.223 512.911,240.108 511.982,191.569C510.935,136.888 465.301,93.525 410.552,95.518C406.056,95.684 401.692,93.191 399.497,89.176C395.202,81.316 390.1,73.834 384.33,66.939C381.672,63.762 376.941,63.342 373.766,66C370.589,68.658 370.168,73.388 372.827,76.564C377.966,82.707 382.511,89.369 386.334,96.368C391.074,105.045 400.346,110.526 410.15,110.526C410.463,110.526 410.778,110.52 411.093,110.509C457.365,108.835 496.096,145.473 496.984,191.857C497.882,238.702 458.438,276.501 412.19,276.501ZM419.358,387.278C425.889,387.278 431.204,392.592 431.204,399.124C431.204,405.656 425.89,410.97 419.358,410.97C412.826,410.97 407.511,405.656 407.511,399.124C407.511,392.592 412.826,387.278 419.358,387.278ZM476.022,317.692C480.666,317.692 484.443,321.468 484.443,326.111C484.443,330.754 480.666,334.532 476.022,334.532C471.378,334.532 467.601,330.754 467.601,326.111C467.601,321.468 471.378,317.692 476.022,317.692Z" style="fill:rgb(234,39,46);fill-rule:nonzero;"/>
    </g>
</svg>
