<?xml version="1.0" encoding="UTF-8" standalone="no"?>
<!DOCTYPE svg PUBLIC "-//W3C//DTD SVG 1.1//EN" "http://www.w3.org/Graphics/SVG/1.1/DTD/svg11.dtd">
<svg width="100%" height="100%" viewBox="0 0 751 66" version="1.1" xmlns="http://www.w3.org/2000/svg" xmlns:xlink="http://www.w3.org/1999/xlink" xml:space="preserve" xmlns:serif="http://www.serif.com/" style="fill-rule:evenodd;clip-rule:evenodd;strokeLinejoin:round;stroke-miterlimit:2;">
    <g transform="matrix(1,0,0,1,-468.411,-417.051)">
        <g transform="matrix(1,0,0,1,-116.589,182.957)">
            <g id="Transport">
                <path id="Obdélník-1058" serif:id="Obdélník 1058" d="M649,267C649,249.339 634.661,235 617,235C599.339,235 585,249.339 585,267C585,284.661 599.339,299 617,299C634.661,299 649,284.661 649,267Z" style="fill:rgb(233,37,45);"/>
                <path id="check" d="M625.895,259.705C625.988,259.58 626.113,259.517 626.27,259.517C626.426,259.517 626.551,259.58 626.644,259.705L627.207,260.22C627.301,260.345 627.348,260.486 627.348,260.642C627.348,260.798 627.301,260.923 627.207,261.017L613.145,275.08C613.019,275.205 612.887,275.267 612.746,275.267C612.605,275.267 612.473,275.205 612.348,275.08L606.77,269.502C606.676,269.408 606.629,269.283 606.629,269.126C606.629,268.97 606.676,268.83 606.77,268.705L607.332,268.189C607.426,268.064 607.551,268.001 607.707,268.001C607.863,268.001 607.988,268.064 608.082,268.189L612.723,272.83L625.895,259.705Z" style="fill:white;fill-rule:nonzero;"/>
                <g transform="matrix(0.128706,0,0,0.128706,1302.15,267.043)">
                    <g transform="matrix(1,0,0,1,-256,-256)">
                        <g>
                            <g>
                                <path d="M476.158,231.363L462.899,178.328C466.524,177.558 469.244,174.342 469.244,170.489L469.244,161.938C469.244,143.372 454.139,128.268 435.574,128.268L375.182,128.268L375.182,110.63C375.182,101.494 367.75,94.062 358.614,94.062L50.772,94.062C41.636,94.062 34.204,101.494 34.204,110.63L34.204,256C34.204,260.427 37.793,264.017 42.221,264.017C46.648,264.017 50.238,260.428 50.238,256L50.238,110.63C50.238,110.335 50.477,110.096 50.772,110.096L358.613,110.096C358.908,110.096 359.147,110.335 359.147,110.63L359.147,256.002C359.147,260.429 362.736,264.019 367.164,264.019C371.591,264.019 375.181,260.43 375.181,256.002L375.181,246.914L469.75,246.914C469.758,246.914 469.764,246.916 469.771,246.916C469.779,246.916 469.786,246.915 469.793,246.915C481.43,246.923 491.311,254.561 494.705,265.086L469.777,265.086C465.35,265.086 461.76,268.675 461.76,273.103L461.76,290.205C461.76,304.056 473.028,315.324 486.879,315.324L495.965,315.324L495.965,350.597L475.003,350.597C468.117,330.714 449.216,316.392 427.021,316.392C404.826,316.392 385.924,330.714 379.039,350.597L375.179,350.597L375.179,290.204C375.179,285.777 371.59,282.187 367.162,282.187C362.735,282.187 359.145,285.776 359.145,290.204L359.145,350.595L192.817,350.595C185.931,330.712 167.03,316.39 144.835,316.39C122.64,316.39 103.738,330.712 96.853,350.595L50.772,350.595C50.477,350.595 50.238,350.356 50.238,350.061L50.238,332.424L84.977,332.424C89.404,332.424 92.994,328.835 92.994,324.407C92.994,319.979 89.405,316.39 84.977,316.39L8.017,316.39C3.59,316.39 0,319.979 0,324.407C0,328.835 3.589,332.424 8.017,332.424L34.205,332.424L34.205,350.061C34.205,359.197 41.637,366.629 50.773,366.629L94.077,366.629C94.075,366.807 94.063,366.984 94.063,367.163C94.063,395.159 116.84,417.935 144.835,417.935C172.83,417.935 195.607,395.159 195.607,367.163C195.607,366.983 195.595,366.807 195.593,366.629L376.263,366.629C376.261,366.807 376.249,366.984 376.249,367.163C376.249,395.159 399.026,417.935 427.021,417.935C455.016,417.935 477.793,395.159 477.793,367.163C477.793,366.983 477.781,366.807 477.779,366.629L503.982,366.629C508.409,366.629 511.999,363.04 511.999,358.612L511.999,273.101C512,251.989 496.423,234.448 476.158,231.363ZM375.182,144.301L435.574,144.301C445.299,144.301 453.211,152.213 453.211,161.938L453.211,162.472L375.182,162.472L375.182,144.301ZM375.182,230.881L375.182,178.505L446.417,178.505L459.511,230.881L375.182,230.881ZM144.835,401.904C125.68,401.904 110.096,386.321 110.096,367.165C110.096,348.009 125.68,332.426 144.835,332.426C163.99,332.426 179.574,348.009 179.574,367.165C179.574,386.321 163.99,401.904 144.835,401.904ZM427.023,401.904C407.868,401.904 392.284,386.321 392.284,367.165C392.284,348.009 407.868,332.426 427.023,332.426C446.178,332.426 461.762,348.009 461.762,367.165C461.762,386.321 446.178,401.904 427.023,401.904ZM495.967,299.29L486.881,299.29C481.871,299.29 477.795,295.214 477.795,290.204L477.795,281.118L495.966,281.118L495.966,299.29L495.967,299.29Z" style="fill:rgb(234,39,46);fill-rule:nonzero;"/>
                            </g>
                        </g>
                        <g>
                            <g>
                                <path d="M144.835,350.597C135.699,350.597 128.267,358.029 128.267,367.165C128.267,376.301 135.699,383.733 144.835,383.733C153.971,383.733 161.403,376.301 161.403,367.165C161.403,358.029 153.971,350.597 144.835,350.597Z" style="fill:rgb(234,39,46);fill-rule:nonzero;"/>
                            </g>
                        </g>
                        <g>
                            <g>
                                <path d="M427.023,350.597C417.887,350.597 410.455,358.029 410.455,367.165C410.455,376.301 417.887,383.733 427.023,383.733C436.159,383.733 443.591,376.301 443.591,367.165C443.591,358.029 436.159,350.597 427.023,350.597Z" style="fill:rgb(234,39,46);fill-rule:nonzero;"/>
                            </g>
                        </g>
                        <g>
                            <g>
                                <path d="M332.96,316.393L213.244,316.393C208.817,316.393 205.227,319.982 205.227,324.41C205.227,328.838 208.816,332.427 213.244,332.427L332.96,332.427C337.387,332.427 340.977,328.838 340.977,324.41C340.977,319.982 337.388,316.393 332.96,316.393Z" style="fill:rgb(234,39,46);fill-rule:nonzero;"/>
                            </g>
                        </g>
                        <g>
                            <g>
                                <path d="M127.733,282.188L25.119,282.188C20.692,282.188 17.102,285.777 17.102,290.205C17.102,294.633 20.691,298.222 25.119,298.222L127.733,298.222C132.16,298.222 135.75,294.633 135.75,290.205C135.75,285.777 132.16,282.188 127.733,282.188Z" style="fill:rgb(234,39,46);fill-rule:nonzero;"/>
                            </g>
                        </g>
                        <g>
                            <g>
                                <path d="M278.771,173.37C275.641,170.24 270.564,170.24 267.434,173.371L196.142,244.662L159.055,207.575C155.924,204.444 150.848,204.444 147.718,207.575C144.587,210.706 144.587,215.781 147.718,218.912L190.474,261.668C192.039,263.234 194.091,264.016 196.142,264.016C198.193,264.016 200.246,263.234 201.81,261.668L278.77,184.708C281.901,181.576 281.901,176.501 278.771,173.37Z" style="fill:rgb(234,39,46);fill-rule:nonzero;"/>
                            </g>
                        </g>
                    </g>
                </g>
                <g transform="matrix(0.122892,0,0,0.122892,960.485,267.561)">
                    <g transform="matrix(1,0,0,1,-256,-256)">
                        <clipPath id="_clip1">
                            <rect x="0" y="0" width="512" height="512"/>
                        </clipPath>
                        <g clip-path="url(#_clip1)">
                            <g>
                                <g>
                                    <path d="M491.729,112.971L259.261,0.745C257.2,-0.249 254.8,-0.249 252.74,0.745L20.271,112.971C17.679,114.222 16.032,116.847 16.032,119.725L16.032,392.274C16.032,395.152 17.679,397.777 20.271,399.028L252.739,511.254C253.769,511.751 254.885,512 256,512C257.115,512 258.23,511.751 259.261,511.254L491.729,399.028C494.321,397.777 495.968,395.152 495.968,392.274L495.968,119.726C495.968,116.846 494.32,114.223 491.729,112.971ZM256,15.828L471.217,119.725L408.83,149.843C408.435,149.542 408.018,149.264 407.56,149.043L193.805,45.853L256,15.828ZM176.867,54.333L391.771,158.079L347.756,179.328L132.941,75.624L176.867,54.333ZM396.799,172.307L396.799,250.853L355.686,270.701L355.686,192.155L396.799,172.307ZM480.968,387.568L263.5,492.55L263.5,236.658L315.373,211.616C319.103,209.815 320.667,205.332 318.866,201.601C317.065,197.872 312.582,196.306 308.851,198.108L256,223.623L235.204,213.583C231.473,211.78 226.99,213.346 225.189,217.076C223.388,220.806 224.952,225.29 228.682,227.091L248.5,236.658L248.5,492.55L31.032,387.566L31.032,131.674L196.632,211.619C197.683,212.127 198.794,212.367 199.887,212.367C202.675,212.367 205.353,210.805 206.646,208.126C208.447,204.396 206.883,199.912 203.153,198.111L40.783,119.725L115.288,83.757L340.582,192.52C340.615,192.566 340.652,192.607 340.686,192.652L340.686,282.651C340.686,285.232 342.013,287.631 344.199,289.004C345.413,289.766 346.798,290.151 348.187,290.151C349.299,290.151 350.414,289.904 351.447,289.405L407.56,262.316C410.152,261.065 411.799,258.441 411.799,255.562L411.799,165.067L480.968,131.675L480.968,387.568Z" style="fill:rgb(234,39,46);fill-rule:nonzero;"/>
                                </g>
                            </g>
                            <g>
                                <g>
                                    <path d="M92.926,358.479L58.811,342.01C55.079,340.207 50.597,341.773 48.796,345.503C46.995,349.233 48.559,353.717 52.289,355.518L86.404,371.987C87.455,372.495 88.566,372.735 89.659,372.735C92.447,372.735 95.125,371.173 96.418,368.494C98.22,364.763 96.656,360.281 92.926,358.479Z" style="fill:rgb(234,39,46);fill-rule:nonzero;"/>
                                </g>
                            </g>
                            <g>
                                <g>
                                    <path d="M124.323,338.042L58.858,306.438C55.127,304.637 50.644,306.201 48.843,309.932C47.043,313.662 48.607,318.146 52.337,319.947L117.802,351.551C118.853,352.058 119.964,352.299 121.057,352.299C123.845,352.299 126.523,350.737 127.816,348.058C129.617,344.326 128.053,339.842 124.323,338.042Z" style="fill:rgb(234,39,46);fill-rule:nonzero;"/>
                                </g>
                            </g>
                        </g>
                    </g>
                </g>
                <g id="Obdélník-1057" serif:id="Obdélník 1057">
                    <rect x="1004" y="267" width="250" height="1" style="fill-opacity:0;"/>
                    <path d="M1009,268L1004,268L1004,267L1009,267L1009,268ZM1015,268L1010,268L1010,267L1015,267L1015,268ZM1016,267L1021,267L1021,268L1016,268L1016,267ZM1022,267L1027,267L1027,268L1022,268L1022,267ZM1028,267L1033,267L1033,268L1028,268L1028,267ZM1034,267L1039,267L1039,268L1034,268L1034,267ZM1040,267L1045,267L1045,268L1040,268L1040,267ZM1046,267L1051,267L1051,268L1046,268L1046,267ZM1052,267L1057,267L1057,268L1052,268L1052,267ZM1058,267L1063,267L1063,268L1058,268L1058,267ZM1064,267L1069,267L1069,268L1064,268L1064,267ZM1070,267L1075,267L1075,268L1070,268L1070,267ZM1076,267L1081,267L1081,268L1076,268L1076,267ZM1082,267L1087,267L1087,268L1082,268L1082,267ZM1088,267L1093,267L1093,268L1088,268L1088,267ZM1094,267L1099,267L1099,268L1094,268L1094,267ZM1100,267L1105,267L1105,268L1100,268L1100,267ZM1106,267L1111,267L1111,268L1106,268L1106,267ZM1117,268L1112,268L1112,267L1117,267L1117,268ZM1118,267L1123,267L1123,268L1118,268L1118,267ZM1124,267L1129,267L1129,268L1124,268L1124,267ZM1130,267L1135,267L1135,268L1130,268L1130,267ZM1136,267L1141,267L1141,268L1136,268L1136,267ZM1142,267L1147,267L1147,268L1142,268L1142,267ZM1148,267L1153,267L1153,268L1148,268L1148,267ZM1154,267L1159,267L1159,268L1154,268L1154,267ZM1160,267L1165,267L1165,268L1160,268L1160,267ZM1166,267L1171,267L1171,268L1166,268L1166,267ZM1172,267L1177,267L1177,268L1172,268L1172,267ZM1178,267L1183,267L1183,268L1178,268L1178,267ZM1184,267L1189,267L1189,268L1184,268L1184,267ZM1190,267L1195,267L1195,268L1190,268L1190,267ZM1196,267L1201,267L1201,268L1196,268L1196,267ZM1202,267L1207,267L1207,268L1202,268L1202,267ZM1208,267L1213,267L1213,268L1208,268L1208,267ZM1214,267L1219,267L1219,268L1214,268L1214,267ZM1220,267L1225,267L1225,268L1220,268L1220,267ZM1231,268L1226,268L1226,267L1231,267L1231,268ZM1237,268L1232,268L1232,267L1237,267L1237,268ZM1243,268L1238,268L1238,267L1243,267L1243,268ZM1249,268L1244,268L1244,267L1249,267L1249,268ZM1254,267L1254,268L1250,268L1250,267L1254,267Z" style="fill:rgb(233,37,45);"/>
                </g>
                <g id="Obdélník-1057-kopie" serif:id="Obdélník 1057 kopie">
                    <rect x="663" y="267" width="251" height="1" style="fill-opacity:0;"/>
                    <path d="M667.999,267L667.999,268L663.001,268L663.001,267L667.999,267ZM673.999,267L673.999,268L669.001,268L669.001,267L673.999,267ZM679.999,267L679.999,268L675.001,268L675.001,267L679.999,267ZM685.999,267L685.999,268L681.001,268L681.001,267L685.999,267ZM691.999,267L691.999,268L687.5,268L687.999,267L691.999,267ZM693.001,267L697.999,267L697.999,268L693.001,268L693.001,267ZM699.001,267L703.999,267L703.999,268L699.001,268L699.001,267ZM709.999,267L709.999,268L705.001,268L705.001,267L709.999,267ZM715.999,267L715.999,268L711.5,268L711.999,267L715.999,267ZM721.999,267L721.999,268L717.001,268L717.001,267L721.999,267ZM727.999,267L727.999,268L723.001,268L723.001,267L727.999,267ZM733.999,267L733.999,268L729.001,268L729.001,267L733.999,267ZM739.999,267L739.999,268L735.001,268L735.001,267L739.999,267ZM745.999,267L745.999,268L741.001,268L741.001,267L745.999,267ZM748,267L752,267L752,268L747.5,268L748,267ZM753.002,267L757.999,267L757.999,268L753.002,268L753.002,267ZM759.002,267L763.999,267L763.999,268L759.002,268L759.002,267ZM765.999,267L769.999,267L769.999,268L765.5,268L765.999,267ZM771.999,267L775.999,267L775.999,268L771.5,268L771.999,267ZM777.001,267L781.999,267L781.999,268L777.001,268L777.001,267ZM783.002,267L787.999,267L787.999,268L783.002,268L783.002,267ZM789.002,267L793.999,267L793.999,268L789.002,268L789.002,267ZM795.002,267L799.999,267L799.999,268L795.002,268L795.002,267ZM801.002,267L805.999,267L805.999,268L801.002,268L801.002,267ZM807.002,267L811.999,267L811.999,268L807.002,268L807.002,267ZM817.999,267L817.999,268L813.002,268L813.002,267L817.999,267ZM823.999,267L823.999,268L819.002,268L819.002,267L823.999,267ZM825.999,267L830,267L830,268L825.5,268L825.999,267ZM831.001,267L836,267L836,268L831.001,268L831.001,267ZM837.001,267L842,267L842,268L837.001,268L837.001,267ZM843.001,267L848,267L848,268L843.001,268L843.001,267ZM849.001,267L854,267L854,268L849.001,268L849.001,267ZM855.001,267L860,267L860,268L855.001,268L855.001,267ZM861.001,267L866,267L866,268L861.001,268L861.001,267ZM867.002,267L872,267L872,268L867.002,268L867.002,267ZM873.002,267L878,267L878,268L873.002,268L873.002,267ZM879.002,267L884,267L884,268L879.002,268L879.002,267ZM885.002,267L890,267L890,268L885.002,268L885.002,267ZM891.002,267L896,267L896,268L891.002,268L891.002,267ZM897.002,267L902,267L902,268L897.002,268L897.002,267ZM908,267L908,268L903.002,268L903.002,267L908,267ZM914,268L909.501,268L910,267L914,267L914,268Z" style="fill:rgb(233,37,45);"/>
                </g>
            </g>
        </g>
    </g>
</svg>
