<?xml version="1.0" encoding="UTF-8" standalone="no"?>
<svg
   xmlns:dc="http://purl.org/dc/elements/1.1/"
   xmlns:cc="http://creativecommons.org/ns#"
   xmlns:rdf="http://www.w3.org/1999/02/22-rdf-syntax-ns#"
   xmlns:svg="http://www.w3.org/2000/svg"
   xmlns="http://www.w3.org/2000/svg"
   xmlns:sodipodi="http://sodipodi.sourceforge.net/DTD/sodipodi-0.dtd"
   xmlns:inkscape="http://www.inkscape.org/namespaces/inkscape"
   width="196"
   height="196"
   viewBox="0 0 196 196"
   version="1.1"
   id="svg895"
   sodipodi:docname="karmen-logo-rect.svg"
   inkscape:version="0.92.3 (2405546, 2018-03-11)">
  <metadata
     id="metadata901">
    <rdf:RDF>
      <cc:Work
         rdf:about="">
        <dc:format>image/svg+xml</dc:format>
        <dc:type
           rdf:resource="http://purl.org/dc/dcmitype/StillImage" />
        <dc:title>Untitled copy</dc:title>
      </cc:Work>
    </rdf:RDF>
  </metadata>
  <defs
     id="defs899" />
  <sodipodi:namedview
     pagecolor="#ffffff"
     bordercolor="#666666"
     borderopacity="1"
     objecttolerance="10"
     gridtolerance="10"
     guidetolerance="10"
     inkscape:pageopacity="0"
     inkscape:pageshadow="2"
     inkscape:window-width="1660"
     inkscape:window-height="1028"
     id="namedview897"
     showgrid="false"
     inkscape:zoom="2.9846939"
     inkscape:cx="54"
     inkscape:cy="98"
     inkscape:window-x="0"
     inkscape:window-y="0"
     inkscape:window-maximized="0"
     inkscape:current-layer="svg895" />
  <!-- Generator: Sketch 57.1 (83088) - https://sketch.com -->
  <title
     id="title886">Untitled copy</title>
  <desc
     id="desc888">Created with Sketch.</desc>
  <g
     id="Page-1"
     style="fill:none;fill-rule:evenodd;stroke:none;stroke-width:1"
     transform="translate(44,-0.12354342)">
    <g
       id="logo-short"
       style="fill-rule:nonzero">
      <polygon
         id="outline"
         points="50.607874,67.658575 65.501166,58.47778 65.501166,54.767491 86.966309,41.316001 108,54.281976 108,84.59251 92.149184,94.61582 92.149184,98.342726 76.312671,108.37995 92.149184,118.41718 92.149184,142.65691 108,152.68022 108,182.99075 86.974869,195.95145 65.755384,182.76096 65.522318,158.28901 48.951049,148.0195 48.951049,123.31666 42.84337,119.55026 42.460686,141.7459 21.27244,154.91698 0,141.98103 0,13.256334 21.025131,0.29563684 42.234396,13.479775 42.933673,62.895277 "
         style="fill:#ffffff" />
      <path
         d="m 102.3683,157.44755 v 22.14452 l -14.219116,9.09091 v -22.37762 z m -15.384617,-11.18881 15.151517,9.32401 -15.151517,9.32401 -14.685315,-9.32401 z m -1.165501,-23.77622 v 22.61072 l -14.219114,8.85781 v -22.61072 z m -48.951049,-6.29371 v 22.61072 l -14.918415,8.85781 v -22.61072 z m 33.799534,-4.662 14.918415,9.32401 -15.151516,9.0909 -14.918414,-9.0909 z m -48.717949,-9.55711 14.918415,9.09091 v 3.0303 l -14.918415,8.62471 z m 33.333333,-3.729607 14.219115,8.624707 v 3.2634 l -14.219115,8.85781 z m 16.317017,-14.452214 14.219114,8.624708 v 3.496504 L 71.599068,104.7669 Z M 52.484848,77.494172 V 94.277389 L 38.965035,85.885781 Z M 102.3683,58.846154 V 81.456876 L 88.149184,90.314685 V 67.703963 Z M 37.566434,66.305361 52.484848,75.629371 37.566434,84.72028 23.114219,76.095571 V 75.39627 Z M 69.501166,63.041958 V 80.291375 L 55.515152,71.666667 Z M 36.867133,42.296037 V 64.67366 L 21.948718,73.531469 V 51.386946 Z m 50.11655,5.594406 14.685317,9.324009 -14.685317,9.090909 -14.918415,-9.090909 z m -50.815851,-29.83683 0.699301,22.144522 -14.918415,9.32401 V 26.911422 Z M 21.249417,6.864802 35.934732,16.188811 21.016317,25.27972 6.331002,16.188811 Z"
         id="white-fill"
         inkscape:connector-curvature="0"
         style="fill:#ffffff" />
      <path
         d="m 21.016317,5 17.249417,10.722611 0.699301,49.417249 13.519813,8.391609 V 71.200466 L 69.501166,60.710956 V 56.981352 L 86.983683,46.025641 104,56.515152 v 25.874125 l -15.850816,10.02331 v 3.729604 L 71.599068,106.6317 v 3.4965 l 16.550116,10.48952 v 24.24242 L 104,154.88345 v 25.87413 L 86.983683,191.24709 69.734266,180.52448 69.501166,156.04895 52.951049,145.79254 V 121.08392 L 38.965035,112.45921 38.498834,139.49883 21.249417,150.22144 4,139.73193 V 15.48951 Z m 81.351983,152.44755 -14.219116,8.85781 v 22.37762 l 14.219116,-9.09091 z m -15.384617,-11.18881 -14.685315,9.32401 14.685315,9.32401 15.151517,-9.32401 z m -1.165501,-23.77622 -14.219114,8.85781 v 22.61072 l 14.219114,-8.85781 z m -48.951049,-6.29371 -14.918415,8.85781 v 22.61072 l 14.918415,-8.85781 z m 33.799534,-4.662 -15.151515,9.32401 14.918414,9.0909 15.151516,-9.0909 z M 21.948718,101.9697 v 20.74592 l 14.918415,-8.62471 v -3.0303 z m 33.333333,-3.729607 v 20.745917 l 14.219115,-8.85781 v -3.2634 z M 71.599068,83.787879 V 104.7669 l 14.219114,-8.857809 v -3.496504 z m -19.11422,-6.293707 -13.519813,8.391609 13.519813,8.391608 z M 102.3683,58.846154 88.149184,67.703963 V 90.314685 L 102.3683,81.456876 Z M 37.566434,66.305361 23.114219,75.39627 v 0.699301 l 14.452215,8.624709 14.918414,-9.090909 z m 31.934732,-3.263403 -13.986014,8.624709 13.986014,8.624708 z M 36.867133,42.296037 21.948718,51.386946 V 73.531469 L 36.867133,64.67366 Z m 50.11655,5.594406 -14.918415,9.324009 14.918415,9.090909 L 101.669,57.214452 Z M 36.167832,18.053613 21.948718,26.911422 v 22.610723 l 14.918415,-9.32401 z M 21.249417,6.864802 6.331002,16.188811 21.016317,25.27972 35.934732,16.188811 Z"
         id="red-frame"
         inkscape:connector-curvature="0"
         style="fill:#ea262d" />
    </g>
  </g>
</svg>
