<?xml version="1.0" encoding="UTF-8" standalone="no"?>
<!DOCTYPE svg PUBLIC "-//W3C//DTD SVG 1.1//EN" "http://www.w3.org/Graphics/SVG/1.1/DTD/svg11.dtd">
<svg width="100%" height="100%" viewBox="0 0 187 187" version="1.1" xmlns="http://www.w3.org/2000/svg" xmlns:xlink="http://www.w3.org/1999/xlink" xml:space="preserve" xmlns:serif="http://www.serif.com/" style="fill-rule:evenodd;clip-rule:evenodd;stroke-linejoin:round;stroke-miterlimit:2;">
    <g transform="matrix(1,0,0,1,-625.5,-512)">
        <g id="Page-1">
            <g id="Logo">
                <path id="Combined-Shape" d="M686.016,512L703.266,522.723L703.965,572.14L717.485,580.531L717.485,578.2L734.501,567.711L734.501,563.981L751.984,553.026L769,563.515L769,589.389L753.149,599.413L753.149,603.142L736.599,613.632L736.599,617.128L753.149,627.618L753.149,651.86L769,661.883L769,687.758L751.984,698.247L734.734,687.524L734.501,663.049L717.951,652.793L717.951,628.084L703.965,619.459L703.499,646.499L686.249,657.221L669,646.732L669,522.49L686.016,512ZM767.368,664.448L753.149,673.305L753.149,695.683L767.368,686.592L767.368,664.448ZM751.984,653.259L737.298,662.583L751.984,671.907L767.135,662.583L751.984,653.259ZM750.818,629.483L736.599,638.34L736.599,660.951L750.818,652.093L750.818,629.483ZM701.867,623.189L686.949,632.047L686.949,654.657L701.867,645.8L701.867,623.189ZM735.667,618.527L720.515,627.851L735.434,636.942L750.585,627.851L735.667,618.527ZM686.949,608.97L686.949,629.716L701.867,621.091L701.867,618.061L686.949,608.97ZM720.282,605.24L720.282,625.986L734.501,617.128L734.501,613.865L720.282,605.24ZM736.599,590.788L736.599,611.767L750.818,602.909L750.818,599.413L736.599,590.788ZM717.485,584.494L703.965,592.886L717.485,601.277L717.485,584.494ZM767.368,565.846L753.149,574.704L753.149,597.315L767.368,588.457L767.368,565.846ZM702.566,573.305L688.114,582.396L688.114,583.096L702.566,591.72L717.485,582.629L702.566,573.305ZM734.501,570.042L720.515,578.667L734.501,587.291L734.501,570.042ZM701.867,549.296L686.949,558.387L686.949,580.531L701.867,571.674L701.867,549.296ZM751.984,554.89L737.065,564.214L751.984,573.305L766.669,564.214L751.984,554.89ZM701.168,525.054L686.949,533.911L686.949,556.522L701.867,547.198L701.168,525.054ZM686.249,513.865L671.331,523.189L686.016,532.28L700.935,523.189L686.249,513.865Z" style="fill:rgb(234,38,45);fill-rule:nonzero;"/>
            </g>
        </g>
    </g>
</svg>
