<?xml version="1.0" encoding="UTF-8" standalone="no"?>
<!DOCTYPE svg PUBLIC "-//W3C//DTD SVG 1.1//EN" "http://www.w3.org/Graphics/SVG/1.1/DTD/svg11.dtd">
<svg width="100%" height="100%" viewBox="0 0 127 120" version="1.1" xmlns="http://www.w3.org/2000/svg" xmlns:xlink="http://www.w3.org/1999/xlink" xml:space="preserve" xmlns:serif="http://www.serif.com/" style="fill-rule:evenodd;clip-rule:evenodd;stroke-linejoin:round;stroke-miterlimit:2;">
    <g transform="matrix(1,0,0,1,0.00021,0.0017)">
        <g transform="matrix(1,0,0,1,-7.12121,-11.0917)">
            <g id="Icon" transform="matrix(1,0,0,1,-481.879,-3970.91)">
                <g id="_1-kopie" serif:id="1 kopie">
                    <g id="Obdélník-1067-kopie" serif:id="Obdélník 1067 kopie">
                        <path d="M616,4055C616,4048.38 610.623,4043 604,4043L508,4043C501.377,4043 496,4048.38 496,4055L496,4089.09C496,4095.72 501.377,4101.09 508,4101.09L604,4101.09C610.623,4101.09 616,4095.72 616,4089.09L616,4055Z" style="fill:white;"/>
                        <path d="M616,4055C616,4048.38 610.623,4043 604,4043L508,4043C501.377,4043 496,4048.38 496,4055L496,4089.09C496,4095.72 501.377,4101.09 508,4101.09L604,4101.09C610.623,4101.09 616,4095.72 616,4089.09L616,4055ZM613,4055L613,4089.09C613,4094.06 608.967,4098.09 604,4098.09L508,4098.09C503.033,4098.09 499,4094.06 499,4089.09L499,4055C499,4050.03 503.033,4046 508,4046L604,4046C608.967,4046 613,4050.03 613,4055Z" style="fill:rgb(233,37,45);"/>
                    </g>
                    <g id="Obdélník-1067" serif:id="Obdélník 1067">
                        <path d="M609,4055C609,4048.38 603.623,4043 597,4043L501,4043C494.377,4043 489,4048.38 489,4055L489,4089.09C489,4095.72 494.377,4101.09 501,4101.09L597,4101.09C603.623,4101.09 609,4095.72 609,4089.09L609,4055Z" style="fill:white;"/>
                        <path d="M609,4055C609,4048.38 603.623,4043 597,4043L501,4043C494.377,4043 489,4048.38 489,4055L489,4089.09C489,4095.72 494.377,4101.09 501,4101.09L597,4101.09C603.623,4101.09 609,4095.72 609,4089.09L609,4055ZM606,4055L606,4089.09C606,4094.06 601.967,4098.09 597,4098.09L501,4098.09C496.033,4098.09 492,4094.06 492,4089.09L492,4055C492,4050.03 496.033,4046 501,4046L597,4046C601.967,4046 606,4050.03 606,4055Z" style="fill:rgb(233,37,45);"/>
                    </g>
                    <g id="Obdélník-1068-kopie" serif:id="Obdélník 1068 kopie">
                        <path d="M593.563,4072C593.563,4066.72 589.278,4062.44 584,4062.44C578.722,4062.44 574.438,4066.72 574.438,4072C574.438,4077.28 578.722,4081.56 584,4081.56C589.278,4081.56 593.563,4077.28 593.563,4072Z" style="fill:white;"/>
                        <path d="M593.563,4072C593.563,4066.72 589.278,4062.44 584,4062.44C578.722,4062.44 574.438,4066.72 574.438,4072C574.438,4077.28 578.722,4081.56 584,4081.56C589.278,4081.56 593.563,4077.28 593.563,4072ZM591.563,4072C591.563,4076.17 588.174,4079.56 584,4079.56C579.826,4079.56 576.438,4076.17 576.438,4072C576.438,4067.83 579.826,4064.44 584,4064.44C588.174,4064.44 591.563,4067.83 591.563,4072Z" style="fill:rgb(233,37,45);"/>
                    </g>
                    <g id="Obdélník-1068" serif:id="Obdélník 1068">
                        <path d="M590,4072C590,4068.69 587.311,4066 584,4066C580.689,4066 578,4068.69 578,4072C578,4075.31 580.689,4078 584,4078C587.311,4078 590,4075.31 590,4072Z" style="fill:white;"/>
                        <path d="M590,4072C590,4068.69 587.311,4066 584,4066C580.689,4066 578,4068.69 578,4072C578,4075.31 580.689,4078 584,4078C587.311,4078 590,4075.31 590,4072ZM588,4072C588,4074.21 586.208,4076 584,4076C581.792,4076 580,4074.21 580,4072C580,4069.79 581.792,4068 584,4068C586.208,4068 588,4069.79 588,4072Z" style="fill:rgb(233,37,45);"/>
                    </g>
                </g>
                <g id="_1" serif:id="1">
                    <g id="Obdélník-1067-kopie1" serif:id="Obdélník 1067 kopie">
                        <path d="M554.094,3994C554.094,3987.38 548.717,3982 542.094,3982L508,3982C501.377,3982 496,3987.38 496,3994L496,4090C496,4096.62 501.377,4102 508,4102L542.094,4102C548.717,4102 554.094,4096.62 554.094,4090L554.094,3994Z" style="fill:white;"/>
                        <path d="M554.094,3994C554.094,3987.38 548.717,3982 542.094,3982L508,3982C501.377,3982 496,3987.38 496,3994L496,4090C496,4096.62 501.377,4102 508,4102L542.094,4102C548.717,4102 554.094,4096.62 554.094,4090L554.094,3994ZM551.094,3994L551.094,4090C551.094,4094.97 547.061,4099 542.094,4099L508,4099C503.033,4099 499,4094.97 499,4090L499,3994C499,3989.03 503.033,3985 508,3985L542.094,3985C547.061,3985 551.094,3989.03 551.094,3994Z" style="fill:rgb(233,37,45);"/>
                    </g>
                    <g id="Obdélník-10671" serif:id="Obdélník 1067">
                        <path d="M547.094,3994C547.094,3987.38 541.717,3982 535.094,3982L501,3982C494.377,3982 489,3987.38 489,3994L489,4090C489,4096.62 494.377,4102 501,4102L535.094,4102C541.717,4102 547.094,4096.62 547.094,4090L547.094,3994Z" style="fill:white;"/>
                        <path d="M547.094,3994C547.094,3987.38 541.717,3982 535.094,3982L501,3982C494.377,3982 489,3987.38 489,3994L489,4090C489,4096.62 494.377,4102 501,4102L535.094,4102C541.717,4102 547.094,4096.62 547.094,4090L547.094,3994ZM544.094,3994L544.094,4090C544.094,4094.97 540.061,4099 535.094,4099L501,4099C496.033,4099 492,4094.97 492,4090L492,3994C492,3989.03 496.033,3985 501,3985L535.094,3985C540.061,3985 544.094,3989.03 544.094,3994Z" style="fill:rgb(233,37,45);"/>
                    </g>
                </g>
            </g>
            <g transform="matrix(0.560685,0,0,0.560685,12.8562,14.9927)">
                <g>
                    <g id="_0" serif:id="0">
                        <g transform="matrix(1,0,0,1,42.1543,18.2212)">
                            <path d="M0,49.098L21.26,36.824L21.26,12.275L0,0L-21.26,12.275L-21.26,36.824L0,49.098Z" style="fill:white;fill-rule:nonzero;"/>
                        </g>
                        <g transform="matrix(1,0,0,1,42.1543,66.1612)">
                            <path d="M0,-46.782L-20.257,-35.086L-20.257,-11.695L0,0L20.257,-11.695L20.257,-35.086L0,-46.782Z" style="fill:rgb(234,39,46);fill-rule:nonzero;"/>
                        </g>
                        <g transform="matrix(0,-1,-1,0,48.2564,46.0484)">
                            <path d="M-6.103,24.355L13.817,24.355L24.355,6.103L4.435,6.103L-6.103,24.355Z" style="fill:white;fill-rule:nonzero;"/>
                        </g>
                        <g transform="matrix(-0.866021,0.500007,0.500007,0.866021,47.3462,62.7236)">
                            <path d="M-6.059,-18.873L15.016,-18.873L5.058,-1.624L-16.018,-1.624L-6.059,-18.873Z" style="fill:white;fill-rule:nonzero;"/>
                        </g>
                    </g>
                </g>
            </g>
        </g>
    </g>
</svg>
